<svg width="24" height="24" viewBox="0 0 24 24" fill="none" xmlns="http://www.w3.org/2000/svg">
<g clip-path="url(#clip0_130_43)">
<path d="M14.5854 12.0224L23.4967 3.11112C24.2055 2.40232 24.2055 1.25253 23.4967 0.543702C22.7879 -0.165446 21.6381 -0.165446 20.9293 0.543702L12.018 9.45535L3.10709 0.54406C2.39829 -0.165089 1.24814 -0.165089 0.539674 0.54406C-0.169475 1.25286 -0.169475 2.40265 0.539674 3.11148L9.4506 12.0224L0.539674 20.9337C-0.169475 21.6425 -0.169475 22.7923 0.539674 23.5011C0.89407 23.8555 1.35846 24.0325 1.82316 24.0325C2.28754 24.0325 2.75232 23.8555 3.10665 23.5011L12.0179 14.5902L20.9292 23.5011C21.2836 23.8555 21.7487 24.0325 22.2127 24.0325C22.6767 24.0325 23.1419 23.8555 23.4962 23.5011C24.205 22.7923 24.205 21.6425 23.4962 20.9337L14.5854 12.0224Z" fill="white"/>
</g>
<defs>
<clipPath id="clip0_130_43">
<rect width="24" height="24" fill="white"/>
</clipPath>
</defs>
</svg>
