<svg xmlns="http://www.w3.org/2000/svg" width="1440" height="911" viewBox="0 0 1440 911" fill="none">
 
    <path d="M-1 46L73.0416 18.6878C137.373 -5.04233 207.919 -5.86177 272.784 16.3677L359.25 46L444.563 75.5445C509.821 98.1441 580.903 97.3763 645.659 73.3722L719.5 46L806.193 16.3298C871.072 -5.87504 941.625 -5.02454 1005.95 18.7378L1079.75 46L1161.86 74.9783C1226.93 97.9452 1297.95 97.6166 1362.81 74.0487L1440 46V861L1357 892.799C1296.1 916.129 1228.78 916.453 1167.66 893.711L1079.75 861L988.44 830.432C935.164 812.596 877.63 811.954 823.969 828.598L719.5 861L639.829 892.136C579.041 915.892 511.673 916.65 450.366 894.266L359.25 861L255.014 828.627C201.364 811.964 143.835 812.583 90.556 830.393L-1 861V46Z" fill="url(#paint0_radial_23_425)"/>
  <defs>
    <filter id="filter0_i_23_425" x="-1" y="0.272797" width="1472" height="913.262" filterUnits="userSpaceOnUse" color-interpolation-filters="sRGB">
      <feFlood flood-opacity="0" result="BackgroundImageFix"/>
      <feBlend mode="normal" in="SourceGraphic" in2="BackgroundImageFix" result="shape"/>
      <feColorMatrix in="SourceAlpha" type="matrix" values="0 0 0 0 0 0 0 0 0 0 0 0 0 0 0 0 0 0 127 0" result="hardAlpha"/>
      <feOffset dx="31" dy="3"/>
      <feGaussianBlur stdDeviation="50"/>
      <feComposite in2="hardAlpha" operator="arithmetic" k2="-1" k3="1"/>
      <feColorMatrix type="matrix" values="0 0 0 0 0 0 0 0 0 0 0 0 0 0 0 0 0 0 0.5 0"/>
      <feBlend mode="normal" in2="shape" result="effect1_innerShadow_23_425"/>
    </filter>
    <radialGradient id="paint0_radial_23_425" cx="0" cy="0" r="1" gradientUnits="userSpaceOnUse" gradientTransform="translate(719.5 455.5) rotate(90) scale(473.5 720.5)">
      <stop stop-color="#2F51B1"/>
      <stop offset="1" stop-color="#294289"/>
    </radialGradient>
  </defs>
</svg>