<svg width="136" height="136" viewBox="0 0 136 136" fill="none" xmlns="http://www.w3.org/2000/svg">
<g id="Group">
<path id="Vector" d="M8.92322 34.2756L34.2916 8.90723C29.7817 11.4843 25.61 14.5607 21.8249 18.0559L18.0719 21.8088C14.5767 25.5779 11.5003 29.7656 8.92322 34.2756Z" fill="#FF9D00"/>
<path id="Vector_2" d="M1.35291 54.4414L54.4574 1.33691C52.9917 1.62684 51.542 1.98119 50.1085 2.36775L2.38377 50.0925C1.9811 51.526 1.64283 52.9757 1.35291 54.4414Z" fill="#FF9D00"/>
<path id="Vector_3" d="M0 67.9389C0 68.0839 0 68.2288 0 68.3738L68.3737 0C68.2287 0 68.0838 0 67.9389 0C66.9564 0 65.9738 0.032203 64.9913 0.0644168L0.0643922 64.9913C0.0321784 65.9738 0 66.9403 0 67.9389Z" fill="#FF9D00"/>
<path id="Vector_4" d="M1.06297 79.9065L79.9384 1.03107C78.9881 0.87 78.0217 0.708933 77.0714 0.580078L0.628052 77.0234C0.7408 78.0059 0.885794 78.9562 1.06297 79.9065Z" fill="#FF9D00"/>
<path id="Vector_5" d="M3.64005 89.9247L89.9408 3.62395C89.1033 3.33402 88.2657 3.07631 87.4282 2.8186L2.85083 87.3959C3.09243 88.2496 3.35013 89.0872 3.64005 89.9247Z" fill="#FF9D00"/>
<path id="Vector_6" d="M7.39299 98.7673L98.7996 7.36065C98.0587 6.99019 97.3178 6.61974 96.5607 6.28149L6.29773 96.5285C6.65208 97.2855 7.00642 98.0264 7.39299 98.7673Z" fill="#FF9D00"/>
<path id="Vector_7" d="M12.0962 106.644L106.66 12.08C105.999 11.629 105.339 11.1781 104.679 10.7432L10.7755 104.646C11.2104 105.323 11.6452 105.983 12.0962 106.644Z" fill="#FF9D00"/>
<path id="Vector_8" d="M17.6853 113.65L113.666 17.6693C113.086 17.1378 112.491 16.6224 111.895 16.123L16.1229 111.895C16.6383 112.491 17.1538 113.07 17.6853 113.65Z" fill="#FF9D00"/>
<path id="Vector_9" d="M24.0958 119.835L119.851 24.0799C119.352 23.4839 118.837 22.888 118.305 22.3081L22.3241 118.289C22.9039 118.821 23.4999 119.336 24.0958 119.835Z" fill="#FF9D00"/>
<path id="Vector_10" d="M31.3439 125.183L125.215 31.3117C124.78 30.6352 124.345 29.9748 123.878 29.3306L29.3467 123.862C30.0071 124.313 30.6674 124.764 31.3439 125.183Z" fill="#FF9D00"/>
<path id="Vector_11" d="M39.4779 129.645L129.661 39.462C129.306 38.705 128.952 37.9641 128.581 37.2231L37.2391 128.565C37.9801 128.936 38.7209 129.29 39.4779 129.645Z" fill="#FF9D00"/>
<path id="Vector_12" d="M48.6268 133.091L133.124 48.6104C132.866 47.7567 132.608 46.9191 132.334 46.0977L46.114 132.318C46.9355 132.576 47.7731 132.833 48.6268 133.091Z" fill="#FF9D00"/>
<path id="Vector_13" d="M58.9995 135.298L135.314 58.9834C135.185 58.017 135.04 57.0668 134.879 56.1003L56.1326 134.847C57.0829 135.024 58.0331 135.169 58.9995 135.298Z" fill="#FF9D00"/>
<path id="Vector_14" d="M67.955 135.894C69.002 135.894 70.0488 135.862 71.0797 135.813L135.829 71.0636C135.878 70.0327 135.91 68.9858 135.91 67.9389C135.91 67.8583 135.91 67.7617 135.91 67.6812L67.7134 135.878C67.7778 135.878 67.8745 135.894 67.955 135.894Z" fill="#FF9D00"/>
<path id="Vector_15" d="M86.043 133.446L133.462 86.0268C133.864 84.5933 134.219 83.1276 134.509 81.6619L81.6619 134.509C83.1437 134.203 84.6095 133.848 86.043 133.446Z" fill="#FF9D00"/>
<path id="Vector_16" d="M126.745 102.021L102.037 126.729C112.265 120.786 120.802 112.249 126.745 102.021Z" fill="#FF9D00"/>
</g>
</svg>
